<svg xmlns="http://www.w3.org/2000/svg" width="12.331" height="16.55" viewBox="0 0 12.331 16.55">
  <path id="パス_1746" data-name="パス 1746" d="M17.086-2.4,11.32-5.786l5.546-3.6a4.26,4.26,0,0,0-1.2-.91,2.92,2.92,0,0,0-1.292-.294,5.386,5.386,0,0,0-2.259.69A34.319,34.319,0,0,0,8.332-7.553l-.967-.536q-.352.079-.606.119a2.926,2.926,0,0,1-.439.04,2.7,2.7,0,0,1-.435-.035,2.24,2.24,0,0,1-.426-.114,3.625,3.625,0,0,0,.387-.778,2.3,2.3,0,0,0,.132-.751,2.2,2.2,0,0,0-.747-1.723A2.792,2.792,0,0,0,3.3-12a2.63,2.63,0,0,0-1.951.751A2.665,2.665,0,0,0,.6-9.284a2.332,2.332,0,0,0,.725,1.85,4.2,4.2,0,0,0,2.325.813q.193.026.527.053,1.925.193,1.925.8,0,.51-1.433.6-.729.044-1.178.1a3.876,3.876,0,0,0-2.206.861A2.383,2.383,0,0,0,.536-2.367,2.6,2.6,0,0,0,1.314-.438,2.679,2.679,0,0,0,3.278.331,2.828,2.828,0,0,0,5.216-.337a2.15,2.15,0,0,0,.76-1.687,2.136,2.136,0,0,0-.127-.725A3.5,3.5,0,0,0,5.458-3.5a2.98,2.98,0,0,1,.321-.07,1.9,1.9,0,0,1,.3-.026,3.434,3.434,0,0,1,.716.11,3.414,3.414,0,0,0,.69.11,1.244,1.244,0,0,0,.492-.1,1.9,1.9,0,0,0,.483-.312A26.32,26.32,0,0,0,12.089-1.7a6.252,6.252,0,0,0,2.457.628,2.977,2.977,0,0,0,1.4-.321A3.524,3.524,0,0,0,17.086-2.4Zm-.94-7.075L10.819-6.094,8.8-7.28a27.78,27.78,0,0,1,3.467-2.171,5.265,5.265,0,0,1,2.21-.659,2.4,2.4,0,0,1,.844.154A3.088,3.088,0,0,1,16.146-9.478ZM16.383-2.3a2.84,2.84,0,0,1-.835.532,2.5,2.5,0,0,1-.932.171,3.686,3.686,0,0,1-1.2-.229A8.362,8.362,0,0,1,11.988-2.5L6.574-5.681Q6.416-6.964,4.061-7.148l-.316-.026A3.913,3.913,0,0,1,1.679-7.8a1.832,1.832,0,0,1-.615-1.516,2.19,2.19,0,0,1,.6-1.6,2.109,2.109,0,0,1,1.578-.615,2.046,2.046,0,0,1,1.494.6A1.991,1.991,0,0,1,5.344-9.46a2.049,2.049,0,0,1-.132.716,2.968,2.968,0,0,1-.4.725q.035.29.435.422a4.417,4.417,0,0,0,1.27.132q.229,0,.466-.013t.492-.04ZM7.954-4.1a.724.724,0,0,1-.312.193,1.437,1.437,0,0,1-.444.062,3.2,3.2,0,0,1-.664-.1,3.179,3.179,0,0,0-.646-.1,2.025,2.025,0,0,0-.8.123.444.444,0,0,0-.3.343,3.225,3.225,0,0,1,.417.747,2.048,2.048,0,0,1,.136.729,1.846,1.846,0,0,1-.606,1.4,2.1,2.1,0,0,1-1.494.571A2.169,2.169,0,0,1,1.635-.763a2.181,2.181,0,0,1-.624-1.6,1.95,1.95,0,0,1,.475-1.327A2.372,2.372,0,0,1,2.83-4.424,11.187,11.187,0,0,1,4.663-4.6,2.547,2.547,0,0,0,6.3-5.048ZM9.431-5.646a.821.821,0,0,0-.242-.6A.789.789,0,0,0,8.6-6.489a.825.825,0,0,0-.6.237.792.792,0,0,0-.242.589A.792.792,0,0,0,8-5.074a.825.825,0,0,0,.6.237.807.807,0,0,0,.589-.233A.775.775,0,0,0,9.431-5.646ZM4.843-2.209a1.5,1.5,0,0,0-.479-1.116,1.6,1.6,0,0,0-1.156-.466,1.544,1.544,0,0,0-1.147.448,1.567,1.567,0,0,0-.444,1.151A1.463,1.463,0,0,0,2.087-1.1a1.6,1.6,0,0,0,1.156.453A1.563,1.563,0,0,0,4.373-1.1,1.487,1.487,0,0,0,4.843-2.209ZM4.86-9.425a1.476,1.476,0,0,0-.475-1.112,1.618,1.618,0,0,0-1.16-.453,1.605,1.605,0,0,0-1.16.431,1.479,1.479,0,0,0-.448,1.116A1.551,1.551,0,0,0,2.07-8.291a1.573,1.573,0,0,0,1.156.448A1.6,1.6,0,0,0,4.386-8.3,1.5,1.5,0,0,0,4.86-9.425Zm4.122,3.8a.422.422,0,0,1-.123.3.39.39,0,0,1-.29.127.427.427,0,0,1-.321-.132.439.439,0,0,1-.127-.316.422.422,0,0,1,.119-.312.422.422,0,0,1,.312-.119.411.411,0,0,1,.294.136A.429.429,0,0,1,8.982-5.628Zm-4.57,3.4a1.054,1.054,0,0,1-.33.769,1.054,1.054,0,0,1-.769.33,1.126,1.126,0,0,1-.8-.312,1,1,0,0,1-.33-.751,1.067,1.067,0,0,1,.334-.787,1.1,1.1,0,0,1,.8-.33,1.061,1.061,0,0,1,.769.325A1.03,1.03,0,0,1,4.412-2.227ZM4.43-9.442a1.089,1.089,0,0,1-.321.787,1.026,1.026,0,0,1-.76.33,1.135,1.135,0,0,1-.817-.321A1.039,1.039,0,0,1,2.2-9.425a1.045,1.045,0,0,1,.312-.769,1.045,1.045,0,0,1,.769-.312,1.148,1.148,0,0,1,.813.316A.99.99,0,0,1,4.43-9.442Z" transform="translate(0.331 -0.536) rotate(90)"/>
</svg>
