<svg xmlns="http://www.w3.org/2000/svg" width="54.034" height="54.022" viewBox="0 0 54.034 54.022">
  <path id="Icon_awesome-instagram" data-name="Icon awesome-instagram" d="M27.018,15.4A13.851,13.851,0,1,0,40.868,29.249,13.829,13.829,0,0,0,27.018,15.4Zm0,22.855a9,9,0,1,1,9-9A9.021,9.021,0,0,1,27.018,38.253ZM44.665,14.832A3.231,3.231,0,1,1,41.435,11.6,3.223,3.223,0,0,1,44.665,14.832Zm9.173,3.279c-.2-4.328-1.193-8.161-4.364-11.319S42.484,2.645,38.156,2.428c-4.46-.253-17.829-.253-22.289,0-4.315.2-8.149,1.193-11.319,4.352S.4,13.771.185,18.1c-.253,4.46-.253,17.829,0,22.289.2,4.328,1.193,8.161,4.364,11.319s6.992,4.147,11.319,4.364c4.46.253,17.829.253,22.289,0,4.328-.2,8.161-1.193,11.319-4.364s4.147-6.992,4.364-11.319c.253-4.46.253-17.816,0-22.277ZM48.077,45.173a9.117,9.117,0,0,1-5.135,5.135c-3.556,1.41-11.994,1.085-15.924,1.085s-12.38.313-15.924-1.085a9.117,9.117,0,0,1-5.135-5.135c-1.41-3.556-1.085-11.994-1.085-15.924S4.56,16.869,5.959,13.325A9.116,9.116,0,0,1,11.094,8.19C14.65,6.779,23.088,7.1,27.018,7.1S39.4,6.791,42.942,8.19a9.116,9.116,0,0,1,5.135,5.135c1.41,3.556,1.085,11.994,1.085,15.924S49.487,41.629,48.077,45.173Z" transform="translate(0.005 -2.238)"/>
</svg>
