<svg xmlns="http://www.w3.org/2000/svg" width="31.518" height="31.52" viewBox="0 0 31.518 31.52">
  <path id="Icon_awesome-instagram" data-name="Icon awesome-instagram" d="M15.757,9.916A8.081,8.081,0,1,0,23.836,18,8.067,8.067,0,0,0,15.757,9.916Zm0,13.335A5.254,5.254,0,1,1,21.009,18a5.263,5.263,0,0,1-5.252,5.254ZM26.051,9.586A1.884,1.884,0,1,1,24.166,7.7,1.88,1.88,0,0,1,26.051,9.586ZM31.4,11.5a9.33,9.33,0,0,0-2.545-6.6,9.385,9.385,0,0,0-6.6-2.546c-2.6-.148-10.4-.148-13,0a9.372,9.372,0,0,0-6.6,2.539,9.36,9.36,0,0,0-2.545,6.6c-.148,2.6-.148,10.4,0,13a9.33,9.33,0,0,0,2.545,6.6,9.4,9.4,0,0,0,6.6,2.546c2.6.148,10.4.148,13,0a9.324,9.324,0,0,0,6.6-2.546A9.391,9.391,0,0,0,31.4,24.5c.148-2.6.148-10.4,0-13Zm-3.361,15.79a5.318,5.318,0,0,1-3,3c-2.074.823-7,.633-9.288.633s-7.221.183-9.288-.633a5.318,5.318,0,0,1-3-3c-.823-2.075-.633-7-.633-9.291s-.183-7.223.633-9.291a5.318,5.318,0,0,1,3-3c2.074-.823,7-.633,9.288-.633s7.221-.183,9.288.633a5.318,5.318,0,0,1,3,3c.823,2.075.633,7,.633,9.291S28.863,25.221,28.041,27.289Z" transform="translate(0.005 -2.238)" fill="#fff"/>
</svg>
