<?xml version="1.0" standalone="no"?>
<!DOCTYPE svg PUBLIC "-//W3C//DTD SVG 20010904//EN"
 "http://www.w3.org/TR/2001/REC-SVG-20010904/DTD/svg10.dtd">
<svg version="1.0" xmlns="http://www.w3.org/2000/svg"
 width="700.000000pt" height="700.000000pt" viewBox="0 0 700.000000 700.000000"
 preserveAspectRatio="xMidYMid meet">
<metadata>
Created by potrace 1.14, written by Peter Selinger 2001-2017
</metadata>
<g transform="translate(0.000000,700.000000) scale(0.100000,-0.100000)"
fill="#000000" stroke="none">
<path d="M3775 5989 c-699 -53 -1265 -310 -1750 -794 -206 -205 -347 -399
-466 -640 -147 -299 -215 -560 -240 -923 -18 -258 9 -579 71 -848 57 -244 189
-555 320 -754 177 -269 412 -499 678 -663 633 -392 1519 -477 2257 -217 550
194 803 414 974 847 51 128 56 209 16 248 -15 16 -35 25 -56 25 -60 0 -106
-38 -227 -190 -225 -281 -383 -423 -569 -512 -193 -93 -366 -123 -708 -123
-316 0 -516 30 -770 116 -608 206 -1039 672 -1218 1319 -130 467 -136 1058
-16 1510 84 317 235 586 444 795 128 127 246 211 410 290 273 133 540 184 896
171 562 -19 928 -143 1215 -409 127 -119 158 -194 204 -502 23 -157 41 -202
91 -229 43 -24 80 -16 120 23 39 39 56 111 69 286 25 339 70 639 136 899 21
85 33 150 29 166 -10 44 -40 65 -91 63 -58 -2 -125 -40 -237 -133 l-91 -77
-81 38 c-376 175 -902 256 -1410 218z"/>
</g>
</svg>
